<svg t="1592965183904" class="icon" viewBox="0 0 1024 1024" version="1.1" xmlns="http://www.w3.org/2000/svg" p-id="1613" width="200" height="200"><path d="M511.972 62C263.441 62 62 263.441 62 511.972 62 760.616 263.441 962 511.972 962 760.616 962 962 760.617 962 511.972 962 263.441 760.617 62 511.972 62z m0 859.982c-226.08 0-409.954-183.817-409.954-410.01 0-226.08 183.873-409.954 409.954-409.954 226.023 0 410.01 183.873 410.01 409.954 0 226.025-183.873 410.01-410.01 410.01z" fill="#d4237a" p-id="1614"></path><path d="M751.635 308.398l-98.503 30.814c-39.907-28.625-88.457-45.913-141.161-45.913-32.33 0-63.031 6.623-91.207 18.073l-97.1-63.873c-6.118-4.042-13.975-4.378-20.43-0.898a19.9 19.9 0 0 0-10.551 17.568v168.943c-14.93 31.488-23.91 66.23-23.91 103.33 0 134.144 109.111 243.143 243.2 243.143 134.087 0 243.2-108.999 243.2-243.143 0-30.59-6.286-59.607-16.671-86.548l38.054-116.183c2.301-7.127 0.505-14.93-4.771-20.262-5.164-5.333-13.077-7.297-20.15-5.051z m-418.99-7.128l47.596 31.319c-17.68 11.506-33.452 25.426-47.596 40.973V301.27z m179.327 438.409c-112.029 0-203.181-91.094-203.181-203.237 0-8.868 1.515-17.287 2.582-25.819 11.787 21.833 40.636 36.876 75.323 36.876 45.519 0 81.104-25.875 81.104-58.877 0-33.059-35.585-58.933-81.104-58.933-21.721 0-41.029 6.006-55.454 15.772 33.508-66.23 101.534-112.254 180.729-112.254 112.029 0 203.181 91.15 203.181 203.181 0 112.198-91.15 203.293-203.181 203.293zM407.463 504.115c-5.893 1.908-12.629 3.367-20.767 3.367-25.538 0-41.141-12.236-41.141-18.915s15.603-18.915 41.141-18.915c8.138 0 14.817 1.459 20.767 3.369-2.975 3.929-4.883 9.429-4.883 15.547s1.852 11.618 4.883 15.547z m280.916-134.089l38.223-11.955-13.695 41.703c-7.297-10.609-15.715-20.374-24.528-29.748z" fill="#d4237a" p-id="1615"></path><path d="M507.763 488.622c0 33.059 35.585 58.877 81.049 58.877s81.104-25.875 81.104-58.877c0-33.059-35.641-58.933-81.104-58.933s-81.049 25.93-81.049 58.933z m39.962-0.056c0-6.679 15.603-18.915 41.085-18.915 8.195 0 14.873 1.459 20.767 3.367-3.031 3.929-4.883 9.429-4.883 15.547s1.908 11.618 4.883 15.547c-5.893 1.908-12.629 3.369-20.767 3.369-25.482 0-41.085-12.236-41.085-18.915z" fill="#d4237a" p-id="1616"></path><path d="M574.835 633.039l-32.217 17.568h-24.864V630.85c17.961-5.669 29.972-18.971 29.972-35.247 0-21.89-21.441-38.447-49.954-38.447-28.455 0-49.954 16.558-49.954 38.447 0 16.277 12.011 29.524 29.972 35.247v19.757h-31.15c-11.002 0-19.981 8.868-19.981 19.925s8.98 19.925 19.981 19.925h101.085c3.424 0 6.623-0.842 9.541-2.413l36.595-19.981c9.767-5.22 13.358-17.401 8.138-27.053-5.332-9.653-17.513-13.19-27.165-7.97z" fill="#d4237a" p-id="1617"></path></svg>