<svg t="1592965307071" class="icon" viewBox="0 0 1024 1024" version="1.1" xmlns="http://www.w3.org/2000/svg" p-id="2151" width="200" height="200"><path d="M230.40000031 800c9.6 7.99999969 16.00000031 12.79999969 24 17.59999969 105.6 76.8 222.40000031 100.8 350.4 75.20000062 19.2-4.8 40.00000031-9.6 33.6-36.80000062-6.40000031-24-25.60000031-19.2-44.80000031-17.59999969-44.80000031 3.19999969-89.59999969 9.6-134.4 4.8-158.4-17.59999969-281.59999969-139.2-310.39999969-304.00000031-25.60000031-142.39999969 55.99999969-297.6 190.39999969-366.39999938 79.99999969-41.59999969 163.2-52.8 251.20000031-33.6 19.2 4.8 41.59999969 11.20000031 49.59999938-16.00000031 6.40000031-19.2-6.40000031-33.6-39.99999938-36.79999969-48-4.8-97.60000031-11.20000031-145.60000031-4.8C299.19999969 102.39999969 185.6 185.6 123.2 331.20000031c-62.4 145.60000031-40.00000031 283.2 54.40000031 411.19999969 4.8 7.99999969 11.20000031 14.4 17.59999969 22.39999969-12.79999969 11.20000031-24 20.80000031-35.20000031 30.40000031-28.8 25.60000031-59.20000031 51.19999969-87.99999938 78.40000031-12.79999969 11.20000031-19.2 28.8-6.40000031 41.59999969 7.99999969 9.6 24 14.4 36.79999969 14.4 7.99999969 0 17.59999969-9.6 24-17.59999969 35.20000031-35.20000031 68.80000031-73.60000031 104.00000062-112.00000031z" fill="#FFFFFF" p-id="2152"></path><path d="M576.00000031 724.80000031c24-3.19999969 49.60000031-3.19999969 72-8.00000062 7.99999969-1.60000031 19.2-17.59999969 19.2-27.19999969 0-7.99999969-12.79999969-17.59999969-22.40000062-22.39999969-6.40000031-3.19999969-17.59999969 0-25.59999938 0-89.59999969 7.99999969-172.8-7.99999969-238.40000062-76.8-6.40000031-6.40000031-22.39999969-11.20000031-31.99999969-8.00000062-20.80000031 6.40000031-22.39999969 28.8-4.8 48 64.00000031 65.59999969 142.39999969 92.80000031 232.00000031 94.40000062zM793.59999969 425.6c12.79999969-17.59999969 25.60000031-28.8 25.60000031-36.79999969-1.60000031-9.6-14.4-24-24-25.60000031-16.00000031-3.19999969-30.40000031 7.99999969-27.19999969 25.60000031 0 9.6 12.79999969 19.2 25.59999938 36.79999969zM739.20000031 510.39999969h-12.80000062c-6.40000031 9.6-19.2 20.80000031-19.2 30.40000031 1.60000031 9.6 14.4 24 24 25.60000031 16.00000031 3.19999969 30.40000031-9.6 27.20000062-25.60000031 0-11.20000031-11.20000031-19.2-19.2-30.40000031zM764.79999969 443.19999969V432.00000031c-9.6-6.40000031-19.2-17.59999969-30.39999938-19.2-17.59999969-3.19999969-30.40000031 9.6-25.60000031 27.19999969 3.19999969 9.6 16.00000031 24 25.60000031 24 9.6 0 20.80000031-12.79999969 30.39999938-20.80000031zM788.79999969 518.40000031h11.20000031c7.99999969-9.6 20.80000031-19.2 22.39999969-28.8 3.19999969-16.00000031-7.99999969-27.19999969-27.19999969-27.20000062-16.00000031 0-28.8 9.6-25.60000031 25.60000031 3.19999969 11.20000031 12.79999969 20.80000031 19.2 30.40000031zM800 563.19999969h-11.20000031c-7.99999969 9.6-20.80000031 19.2-20.79999938 28.8 0 9.6 14.4 22.39999969 24 25.60000031 16.00000031 4.8 30.40000031-7.99999969 27.19999969-24-1.60000031-11.20000031-12.79999969-20.80000031-19.2-30.40000031zM737.6 615.99999969h-12.79999969c-7.99999969 9.6-20.80000031 20.80000031-19.2 28.8 1.60000031 9.6 14.4 22.39999969 25.59999938 24 7.99999969 1.60000031 24-12.79999969 24-22.39999969 0-9.6-11.20000031-20.80000031-17.59999969-30.40000031zM728 372.8c12.79999969-17.59999969 25.60000031-27.19999969 25.60000031-36.79999969 0-7.99999969-12.79999969-20.80000031-22.40000062-24-14.4-4.8-28.8 6.40000031-27.19999969 22.39999969 1.60000031 9.6 12.79999969 19.2 24 38.4zM723.2 268.80000031c12.79999969-16.00000031 27.19999969-25.60000031 25.60000031-33.6 0-9.6-14.4-17.59999969-22.40000062-25.60000031-7.99999969 7.99999969-22.39999969 14.4-24 24 0 6.40000031 11.20000031 17.59999969 20.80000031 35.20000031zM755.19999969 752v-11.20000031c-9.6-6.40000031-20.80000031-17.59999969-30.39999938-15.99999938-7.99999969 1.60000031-20.80000031 14.4-20.80000031 24 0 6.40000031 14.4 20.80000031 22.39999969 20.79999938 9.6 0 19.2-11.20000031 28.8-17.59999969zM790.4 663.99999969c-11.20000031 14.4-24 22.39999969-24 30.40000031s11.20000031 20.80000031 20.80000031 24c14.4 4.8 27.19999969-6.40000031 25.59999938-20.80000031-1.60000031-11.20000031-11.20000031-19.2-22.39999969-33.6zM822.39999969 283.20000031c-14.4-9.6-24-22.39999969-33.6-20.80000031-7.99999969 1.60000031-16.00000031 14.4-24 22.39999969 7.99999969 7.99999969 16.00000031 20.80000031 25.60000031 22.40000062 7.99999969 1.60000031 17.59999969-12.79999969 31.99999969-24zM673.59999969 148.80000031c-11.20000031 16.00000031-22.39999969 25.60000031-20.79999938 33.6 1.60000031 7.99999969 14.4 20.80000031 22.39999969 20.79999938 7.99999969 0 19.2-12.79999969 20.80000031-22.39999969 0-7.99999969-11.20000031-16.00000031-22.40000062-31.99999969zM846.39999969 404.79999969c-11.20000031 14.4-24 24-22.39999969 30.40000031 1.60000031 9.6 14.4 17.59999969 20.80000031 25.60000031 7.99999969-7.99999969 20.80000031-14.4 20.79999938-22.40000062 3.19999969-7.99999969-7.99999969-17.59999969-19.2-33.6zM812.79999969 542.40000031c16.00000031 11.20000031 25.60000031 22.39999969 33.6 20.79999938 9.6-1.60000031 16.00000031-16.00000031 24-24-7.99999969-6.40000031-16.00000031-19.2-24-19.2-11.20000031 0-19.2 11.20000031-33.6 22.40000062zM708.8 798.39999969c-16.00000031-11.20000031-25.60000031-22.39999969-33.6-20.79999938-7.99999969 1.60000031-16.00000031 12.79999969-24 20.79999938 7.99999969 7.99999969 14.4 20.80000031 24 20.80000031 7.99999969 1.60000031 17.59999969-9.6 33.6-20.80000031zM843.2 366.39999969c9.6-14.4 20.80000031-24 19.2-31.99999969-1.60000031-7.99999969-12.79999969-14.4-19.2-22.39999969-7.99999969 7.99999969-19.2 14.4-20.80000031 24-3.19999969 6.40000031 9.6 16.00000031 20.80000031 30.39999938zM873.60000031 643.20000031c-16.00000031-9.6-24-19.2-32.00000062-19.2-7.99999969 1.60000031-14.4 12.79999969-22.39999969 19.2 7.99999969 6.40000031 14.4 17.59999969 24 20.79999938 6.40000031 1.60000031 16.00000031-9.6 30.40000031-20.79999938zM929.6 488c-16.00000031-9.6-25.60000031-19.2-33.6-17.59999969-7.99999969 1.60000031-14.4 14.4-20.80000031 20.79999938 7.99999969 6.40000031 14.4 16.00000031 22.40000062 16.00000031 7.99999969 0 16.00000031-9.6 31.99999969-19.2zM923.19999969 593.6c-14.4-9.6-22.39999969-19.2-28.8-19.2-6.40000031 0-16.00000031 11.20000031-17.59999969 19.2-1.60000031 4.8 11.20000031 16.00000031 16.00000031 17.59999969 7.99999969 0 16.00000031-7.99999969 30.39999938-17.59999969zM894.39999969 358.4c-9.6 14.4-17.59999969 22.39999969-17.59999969 28.8 0 6.40000031 11.20000031 17.59999969 16.00000031 17.59999969 7.99999969-1.60000031 19.2-9.6 19.2-17.59999969 1.60000031-6.40000031-7.99999969-14.4-17.60000062-28.8zM783.99999969 207.99999969c9.6-11.20000031 19.2-17.59999969 19.2-24 0-6.40000031-9.6-17.59999969-15.99999938-17.59999969s-17.59999969 7.99999969-17.60000062 14.4c-1.60000031 6.40000031 6.40000031 14.4 14.4 27.19999969zM812.79999969 800c-12.79999969-7.99999969-20.80000031-17.59999969-27.19999969-16.00000031-6.40000031 0-12.79999969 9.6-19.2 16.00000031 6.40000031 6.40000031 11.20000031 16.00000031 17.59999969 16.00000031 7.99999969 0 16.00000031-7.99999969 28.8-16.00000031zM836.79999969 723.2c-7.99999969 11.20000031-16.00000031 19.2-14.4 24 1.60000031 6.40000031 11.20000031 14.4 17.60000062 16.00000031 4.8 0 16.00000031-11.20000031 15.99999938-16.00000031-1.60000031-6.40000031-9.6-12.79999969-19.2-24zM724.80000031 875.19999969c7.99999969-11.20000031 16.00000031-19.2 14.4-25.59999938 0-4.8-12.79999969-14.4-16.00000031-14.4-6.40000031 1.60000031-14.4 11.20000031-16.00000031 17.59999969 0 4.8 7.99999969 11.20000031 17.60000062 22.39999969zM724.80000031 107.19999969c-7.99999969 9.6-17.59999969 16.00000031-17.60000062 20.80000031 1.60000031 6.40000031 9.6 12.79999969 14.4 19.2 6.40000031-6.40000031 16.00000031-11.20000031 17.60000062-17.59999969 1.60000031-4.8-7.99999969-12.79999969-14.4-22.40000062zM838.4 257.6c7.99999969-11.20000031 16.00000031-17.59999969 17.59999969-24 0-4.8-11.20000031-16.00000031-15.99999938-14.4-6.40000031 1.60000031-16.00000031 9.6-17.60000062 16.00000031 0 3.19999969 7.99999969 11.20000031 16.00000031 22.39999969zM912.00000031 694.4c-9.6-6.40000031-16.00000031-12.79999969-20.80000031-12.79999969-4.8 0-9.6 7.99999969-16.00000031 12.79999969 4.8 4.8 11.20000031 12.79999969 17.60000062 14.4 3.19999969 3.19999969 9.6-6.40000031 19.2-14.4zM889.59999969 264.00000031c-6.40000031 9.6-14.4 16.00000031-14.4 20.79999938 1.60000031 6.40000031 9.6 9.6 16.00000031 16.00000031 4.8-4.8 12.79999969-9.6 12.79999969-16.00000031 1.60000031-6.40000031-6.40000031-11.20000031-14.4-20.79999938zM944 416c-6.40000031 9.6-12.79999969 16.00000031-11.20000031 22.39999969 0 4.8 9.6 9.6 14.4 14.4 4.8-4.8 12.79999969-11.20000031 14.4-15.99999938 0-6.40000031-9.6-11.20000031-17.59999969-20.80000031zM968 543.99999969c-9.6-7.99999969-14.4-16.00000031-19.2-15.99999938-6.40000031 1.60000031-11.20000031 9.6-16.00000031 14.4 4.8 4.8 9.6 12.79999969 14.4 12.79999969 4.8 0 11.20000031-6.40000031 20.80000031-11.20000031zM687.99999969 72.00000031c-9.6-7.99999969-16.00000031-16.00000031-20.79999938-16.00000031-4.8 0-11.20000031 7.99999969-14.4 14.4-1.60000031 3.19999969 7.99999969 12.79999969 12.79999969 12.79999969 6.40000031 1.60000031 12.79999969-4.8 22.39999969-11.19999938zM689.6 908.79999969c-9.6-6.40000031-16.00000031-12.79999969-20.80000031-12.79999969-4.8 0-14.4 7.99999969-12.79999969 11.20000031 1.60000031 6.40000031 7.99999969 14.4 12.79999969 15.99999938 3.19999969 0 9.6-6.40000031 20.80000031-14.4z" fill="#FFFFFF" p-id="2153"></path><path d="M230.40000031 800c-35.20000031 38.4-68.80000031 76.8-104.00000062 113.59999969-6.40000031 7.99999969-16.00000031 17.59999969-24 17.60000062-12.79999969 0-28.8-4.8-36.79999969-14.4-11.20000031-12.79999969-6.40000031-30.40000031 6.40000031-41.60000062C100.80000031 848 131.19999969 822.39999969 159.99999969 796.80000031c11.20000031-9.6 22.39999969-19.2 35.20000031-30.40000031-6.40000031-7.99999969-12.79999969-16.00000031-17.59999969-22.39999969-92.80000031-126.40000031-115.2-265.60000031-54.40000031-411.20000062 60.79999969-145.60000031 175.99999969-228.79999969 331.2-249.6 48-6.40000031 96 0 145.60000031 4.8 33.6 3.19999969 44.80000031 17.59999969 39.99999938 36.80000062-7.99999969 27.19999969-30.40000031 20.80000031-49.59999938 15.99999938-88.00000031-19.2-171.19999969-7.99999969-251.20000031 33.6-134.4 68.80000031-216 223.99999969-190.39999969 366.40000031 28.8 163.2 151.99999969 286.39999969 310.39999969 304.00000031 44.80000031 4.8 89.59999969-1.60000031 134.4-4.8 19.2-1.60000031 38.4-6.40000031 44.80000031 17.59999969 6.40000031 25.60000031-14.4 31.99999969-33.6 36.79999969-127.99999969 27.19999969-244.8 3.19999969-350.4-75.19999969-7.99999969-6.40000031-14.4-11.20000031-24-19.2z" p-id="2154"></path><path d="M576.00000031 724.80000031c-89.59999969 0-169.60000031-28.8-232.00000031-94.40000062-19.2-19.2-17.59999969-41.59999969 4.8-48 9.6-3.19999969 25.60000031 1.60000031 31.99999969 8.00000062 67.2 68.80000031 148.8 84.79999969 238.40000062 76.8 7.99999969 0 19.2-3.19999969 25.59999938 0 9.6 4.8 22.39999969 14.4 22.40000062 22.39999969 0 9.6-11.20000031 25.60000031-19.2 27.19999969-22.39999969 4.8-46.39999969 4.8-72 8.00000062zM793.59999969 425.6c-12.79999969-17.59999969-24-27.19999969-25.59999938-38.4-3.19999969-17.59999969 11.20000031-28.8 27.19999969-25.60000031 9.6 1.60000031 24 16.00000031 24 25.60000031 0 9.6-12.79999969 20.80000031-25.60000031 38.4zM739.20000031 510.39999969c6.40000031 9.6 19.2 19.2 20.79999938 30.40000031 3.19999969 17.59999969-11.20000031 30.40000031-27.19999969 25.60000031-9.6-1.60000031-22.39999969-16.00000031-24-25.60000031-1.60000031-9.6 11.20000031-20.80000031 19.2-30.40000031h11.20000031zM764.79999969 443.19999969c-9.6 7.99999969-20.80000031 20.80000031-30.39999938 19.2-9.6-1.60000031-24-14.4-25.60000031-24-3.19999969-16.00000031 7.99999969-30.40000031 25.60000031-27.19999969 11.20000031 1.60000031 20.80000031 12.79999969 30.39999938 19.2v12.79999969zM788.79999969 518.40000031c-6.40000031-9.6-16.00000031-19.2-17.59999969-30.40000031-3.19999969-16.00000031 9.6-25.60000031 25.60000031-25.60000031 17.59999969 0 28.8 11.20000031 27.19999969 27.20000062-1.60000031 11.20000031-14.4 19.2-22.39999969 28.8-4.8 1.60000031-7.99999969 0-12.80000062 0zM800 563.19999969c6.40000031 9.6 17.59999969 19.2 19.2 30.40000031 1.60000031 17.59999969-11.20000031 28.8-27.19999969 24-9.6-3.19999969-24-16.00000031-24-25.60000031 0-9.6 12.79999969-19.2 20.79999938-28.8h11.20000031zM737.6 615.99999969c6.40000031 9.6 17.59999969 20.80000031 17.59999969 30.40000031-1.60000031 7.99999969-17.59999969 22.39999969-24 22.39999969-9.6-1.60000031-24-14.4-25.59999938-24-1.60000031-7.99999969 12.79999969-19.2 19.2-28.8h12.79999969zM728 372.8c-11.20000031-17.59999969-22.39999969-28.8-24-40.00000031-1.60000031-16.00000031 12.79999969-27.19999969 27.19999969-22.39999969 9.6 3.19999969 22.39999969 16.00000031 22.40000062 24 0 11.20000031-12.79999969 20.80000031-25.60000031 38.4zM723.2 268.80000031c-9.6-17.59999969-22.39999969-28.8-20.80000031-36.80000062 1.60000031-9.6 16.00000031-16.00000031 24-24 7.99999969 7.99999969 20.80000031 17.59999969 22.40000062 25.60000031 1.60000031 9.6-11.20000031 19.2-25.60000031 35.20000031zM755.19999969 752c-9.6 6.40000031-19.2 17.59999969-28.8 17.59999969-7.99999969 0-24-14.4-22.39999969-20.79999938 1.60000031-9.6 12.79999969-22.39999969 20.80000031-24 9.6-1.60000031 19.2 9.6 30.39999938 15.99999938v11.20000031zM790.4 663.99999969c11.20000031 14.4 20.80000031 24 22.39999969 32.00000062 1.60000031 14.4-9.6 25.60000031-25.59999938 20.79999938-9.6-3.19999969-20.80000031-14.4-20.80000031-24 1.60000031-6.40000031 12.79999969-16.00000031 24-28.8zM822.39999969 283.20000031c-14.4 11.20000031-24 24-31.99999969 24-9.6-1.60000031-17.59999969-14.4-25.60000031-22.40000062 7.99999969-7.99999969 16.00000031-20.80000031 24-22.39999969 9.6-1.60000031 19.2 11.20000031 33.6 20.80000031zM673.59999969 148.80000031c11.20000031 16.00000031 22.39999969 24 22.40000062 31.99999969-1.60000031 7.99999969-14.4 22.39999969-20.80000031 22.39999969-7.99999969 0-20.80000031-12.79999969-22.39999969-20.79999938-1.60000031-7.99999969 9.6-17.59999969 20.79999938-33.6zM846.39999969 404.79999969c9.6 16.00000031 20.80000031 25.60000031 19.2 33.6-1.60000031 7.99999969-14.4 16.00000031-20.79999938 22.40000062-7.99999969-7.99999969-19.2-16.00000031-20.80000031-25.60000031-1.60000031-6.40000031 11.20000031-16.00000031 22.39999969-30.40000031zM812.79999969 542.40000031c14.4-11.20000031 24-22.39999969 32.00000062-22.40000062s16.00000031 12.79999969 24 19.2c-7.99999969 7.99999969-14.4 20.80000031-24 24-6.40000031 1.60000031-17.59999969-9.6-32.00000062-20.79999938zM708.8 798.39999969c-16.00000031 11.20000031-25.60000031 22.39999969-33.6 20.80000031-7.99999969-1.60000031-16.00000031-14.4-24-20.80000031 7.99999969-7.99999969 14.4-20.80000031 24-20.79999938 7.99999969 0 17.59999969 11.20000031 33.6 20.79999938zM843.2 366.39999969c-11.20000031-14.4-24-24-22.39999969-30.39999938 1.60000031-9.6 14.4-16.00000031 20.79999938-24 6.40000031 7.99999969 19.2 14.4 19.2 22.39999969 1.60000031 7.99999969-7.99999969 17.59999969-17.59999969 31.99999969zM873.60000031 643.20000031c-14.4 11.20000031-24 22.39999969-30.40000031 20.79999938-9.6-1.60000031-16.00000031-12.79999969-24-20.79999938 7.99999969-6.40000031 14.4-17.59999969 22.39999969-19.2 7.99999969 0 16.00000031 9.6 32.00000062 19.2zM929.6 488c-14.4 9.6-24 19.2-31.99999969 19.2s-14.4-11.20000031-22.40000062-16.00000031c6.40000031-7.99999969 12.79999969-19.2 20.80000031-20.79999938 7.99999969-1.60000031 17.59999969 7.99999969 33.6 17.59999969zM923.19999969 593.6c-14.4 7.99999969-22.39999969 17.59999969-30.39999938 17.59999969-6.40000031 0-17.59999969-12.79999969-16.00000031-17.59999969 1.60000031-7.99999969 11.20000031-19.2 17.59999969-19.2 6.40000031 0 14.4 9.6 28.8 19.2zM894.39999969 358.4c9.6 14.4 19.2 22.39999969 19.2 28.8-1.60000031 7.99999969-12.79999969 16.00000031-19.2 17.59999969-4.8 1.60000031-16.00000031-11.20000031-15.99999938-17.59999969-1.60000031-6.40000031 6.40000031-14.4 15.99999938-28.8zM783.99999969 207.99999969c-7.99999969-12.79999969-16.00000031-20.80000031-14.4-27.19999969 1.60000031-6.40000031 12.79999969-16.00000031 17.60000062-14.4 6.40000031 0 16.00000031 11.20000031 15.99999938 17.59999969 0 4.8-9.6 11.20000031-19.2 24zM812.79999969 800c-12.79999969 7.99999969-20.80000031 16.00000031-27.19999969 16.00000031-6.40000031 0-12.79999969-11.20000031-17.59999969-16.00000031 6.40000031-6.40000031 11.20000031-16.00000031 19.2-16.00000031 6.40000031-1.60000031 12.79999969 6.40000031 25.59999938 16.00000031zM836.79999969 723.2c7.99999969 11.20000031 17.59999969 17.59999969 17.60000062 24 0 4.8-11.20000031 16.00000031-16.00000031 16.00000031-6.40000031-1.60000031-16.00000031-9.6-17.59999969-16.00000031 0-4.8 9.6-12.79999969 15.99999938-24zM724.80000031 875.19999969c-7.99999969-11.20000031-17.59999969-17.59999969-16.00000031-22.39999969 1.60000031-6.40000031 9.6-16.00000031 16.00000031-17.59999969 4.8-1.60000031 16.00000031 7.99999969 15.99999938 14.4-1.60000031 6.40000031-9.6 14.4-15.99999938 25.59999938zM724.80000031 107.19999969c7.99999969 9.6 16.00000031 17.59999969 14.4 22.40000062-1.60000031 6.40000031-11.20000031 11.20000031-17.60000062 17.59999969-4.8-6.40000031-12.79999969-12.79999969-14.4-19.2 0-4.8 9.6-11.20000031 17.60000062-20.80000031zM838.4 257.6c-7.99999969-11.20000031-16.00000031-19.2-14.4-24 1.60000031-6.40000031 9.6-14.4 17.59999969-16.00000031 4.8 0 16.00000031 9.6 16.00000031 14.4-3.19999969 7.99999969-11.20000031 14.4-19.2 25.60000031zM912.00000031 694.4c-9.6 7.99999969-16.00000031 16.00000031-19.2 16.00000031-6.40000031-1.60000031-11.20000031-9.6-17.60000062-14.4 4.8-4.8 9.6-12.79999969 16.00000031-12.80000062 4.8-1.60000031 11.20000031 4.8 20.80000031 11.20000031zM889.59999969 264.00000031c6.40000031 9.6 14.4 14.4 14.4 20.79999938 0 4.8-7.99999969 11.20000031-12.79999969 16.00000031-4.8-4.8-14.4-9.6-16.00000031-16.00000031 0-4.8 7.99999969-11.20000031 14.4-20.79999938zM944 416c7.99999969 9.6 16.00000031 14.4 16.00000031 19.2-1.60000031 6.40000031-9.6 11.20000031-14.4 16.00000031-4.8-4.8-12.79999969-9.6-14.4-14.4 1.60000031-4.8 7.99999969-11.20000031 12.79999969-20.80000031zM968 543.99999969c-9.6 6.40000031-16.00000031 12.79999969-22.39999969 11.20000031-4.8 0-9.6-7.99999969-14.4-12.79999969 4.8-4.8 9.6-12.79999969 15.99999938-14.4 4.8-1.60000031 11.20000031 7.99999969 20.80000031 15.99999938zM687.99999969 72.00000031c-9.6 6.40000031-16.00000031 11.20000031-22.39999969 11.19999938-4.8 0-12.79999969-9.6-12.79999969-12.79999969 1.60000031-6.40000031 7.99999969-14.4 14.4-14.4 6.40000031 1.60000031 11.20000031 9.6 20.79999938 16.00000031zM689.6 908.79999969c-11.20000031 6.40000031-17.59999969 14.4-22.39999969 12.80000062-4.8-1.60000031-11.20000031-9.6-12.80000062-16.00000031 0-3.19999969 7.99999969-11.20000031 12.80000062-11.20000031 6.40000031 1.60000031 11.20000031 7.99999969 22.39999969 14.4z" p-id="2155"></path></svg>